# xmcd CD database file
#
# Track frame offsets:
#	150
#	16755
#	34319
#	52453
#	69691
#	82649
#	91873
#	106572
#	123804
#	147898
#	162958
#	185638
#	203681
#	215283
#	239136
#	256311
#	276320
#	290718
#	304941
#	318892
#	333405
#
# Disc length: 4631 seconds
#
# Revision: 3
# Processed by: cddbd v1.5.2PL0 Copyright (c) Steve Scherf et al.
# Submitted via: CDex 1.79
#
DISCID=31121515
DTITLE=Waldemar MATUSKA - Sbohem, lasko... ZLATA KOLEKCE [CD1 Sbohem, lasko...)
DYEAR=2009
DGENRE=Country
TTITLE0=Slavici z Madridu
TTITLE1=Jo, tresne zraly
TTITLE2=Ruze z Texasu
TTITLE3=Tam za vodou v rakosi (s Evou PILAROVOU)
TTITLE4=Don, diri don
TTITLE5=Tulak se vratil do San Francisca
TTITLE6=Sbohem, lasko
TTITLE7=Zpivam, pro tebe zpivam
TTITLE8=Slycham harmoniku hrat
TTITLE9=Zly trapeni (s Helenou VONDRACKOVOU and Karlem KOPECKYM)
TTITLE10=A tak dal nosis po kapsach sny mladi
TTITLE11=Ma mala zem
TTITLE12=Pisen hazardniho hrace
TTITLE13=Vic nechtel by snad ani d'Artagnan (s Martou KUBISOVOU)
TTITLE14=Uz konicek padi
TTITLE15=Vitr to vi
TTITLE16=Az se muj cas ponachyli 
TTITLE17=Pisnicka pro Zuzanu
TTITLE18=Kdyz jdou na muzskyho leta
TTITLE19=Ma ziva voda
TTITLE20=To vsechno odnes cas
EXTD=YEAR: 2009
EXTT0=
EXTT1=
EXTT2=
EXTT3=
EXTT4=
EXTT5=
EXTT6=
EXTT7=
EXTT8=
EXTT9=
EXTT10=
EXTT11=
EXTT12=
EXTT13=
EXTT14=
EXTT15=
EXTT16=
EXTT17=
EXTT18=
EXTT19=
EXTT20=
PLAYORDER=
